<svg width="347" height="385" viewBox="0 0 347 385" fill="none" xmlns="http://www.w3.org/2000/svg">
<g clip-path="url(#clip0_331_4)" filter="url(#filter0_dddd_331_4)">
<path d="M72.3371 364.643H277.703C291.368 364.643 302.446 353.566 302.446 339.901V85.9348C302.446 82.0786 300.85 78.3944 298.037 75.7565L243.863 24.9493C240.965 22.2308 237.14 20.7178 233.166 20.7178H72.3371C58.672 20.7178 47.5942 31.7955 47.5942 45.4606V339.901C47.5942 353.566 58.672 364.643 72.3371 364.643Z" fill="#011936" fill-opacity="0.26"/>
<path d="M72.3371 364.643H277.703C291.368 364.643 302.446 353.566 302.446 339.901V85.9348C302.446 82.0786 300.85 78.3944 298.037 75.7565L243.863 24.9493C240.965 22.2308 237.14 20.7178 233.166 20.7178H72.3371C58.672 20.7178 47.5942 31.7955 47.5942 45.4606V339.901C47.5942 353.566 58.672 364.643 72.3371 364.643Z" fill="url(#paint0_linear_331_4)"/>
<path d="M72.3371 364.643H277.703C291.368 364.643 302.446 353.566 302.446 339.901V85.9348C302.446 82.0786 300.85 78.3944 298.037 75.7565L243.863 24.9493C240.965 22.2308 237.14 20.7178 233.166 20.7178H72.3371C58.672 20.7178 47.5942 31.7955 47.5942 45.4606V339.901C47.5942 353.566 58.672 364.643 72.3371 364.643Z" stroke="#D11A1A"/>
<g filter="url(#filter1_i_331_4)">
<path d="M243.863 24.949L298.045 75.7565C300.853 78.3892 302.446 82.0664 302.446 85.9152C302.446 95.0025 295.079 102.369 285.992 102.369H243.063C229.398 102.369 218.32 91.2914 218.32 77.6263V35.5635C218.32 27.3644 224.966 20.7178 233.166 20.7178C237.14 20.7178 240.965 22.2306 243.863 24.949Z" fill="#000913" fill-opacity="0.35" style="mix-blend-mode:multiply"/>
</g>
<path d="M210.897 305.261C210.897 287.496 225.298 273.095 243.063 273.095H270.28C288.044 273.095 302.446 287.496 302.446 305.261V339.901C302.446 353.566 291.368 364.644 277.703 364.644H243.063C225.298 364.644 210.897 350.242 210.897 332.478V305.261Z" fill="#3C3B4B"/>
<g filter="url(#filter2_d_331_4)">
<path fill-rule="evenodd" clip-rule="evenodd" d="M227.549 342.963C227.018 344.087 227.4 345.427 228.442 346.095L232.508 348.703C233.759 349.506 235.436 349.025 236.081 347.678L243.432 332.334C243.845 331.474 244.713 330.924 245.665 330.92L266.083 330.839C267.035 330.835 267.903 330.285 268.316 329.424L275.702 314.008C276.347 312.661 278.023 312.18 279.275 312.983L284.073 316.06C285.855 317.203 288.165 315.713 287.865 313.613L284.34 288.885C284.104 287.233 282.332 286.292 280.825 287.019L260.832 296.664C259.085 297.506 258.929 299.934 260.554 300.976L266.719 304.93C267.765 305.601 268.145 306.949 267.606 308.075L261.804 320.186C261.391 321.046 260.523 321.596 259.571 321.6L239.163 321.681C238.206 321.685 237.334 322.241 236.924 323.108L227.549 342.963Z" fill="white"/>
</g>
<path d="M93.4338 221.379H81.1366V254.238H78.5881V221.379H66.2167V219.227H93.4338V221.379ZM106.873 239.442C106.873 238.122 106.683 236.943 106.304 235.903C105.941 234.848 105.421 233.957 104.745 233.231C104.069 232.505 103.261 231.953 102.32 231.573C101.397 231.177 100.374 230.98 99.2523 230.98C97.9821 230.98 96.844 231.177 95.8378 231.573C94.8315 231.969 93.9573 232.538 93.215 233.281C92.4892 234.023 91.9036 234.914 91.4583 235.953C91.0129 236.992 90.716 238.155 90.5675 239.442H106.873ZM90.4438 240.951V241.421C90.4438 243.268 90.6582 244.893 91.0871 246.295C91.516 247.697 92.1263 248.877 92.9181 249.834C93.7099 250.774 94.6666 251.483 95.7883 251.961C96.9099 252.44 98.1636 252.679 99.5492 252.679C100.786 252.679 101.859 252.547 102.766 252.283C103.673 252.003 104.432 251.698 105.042 251.368C105.669 251.021 106.164 250.716 106.527 250.452C106.89 250.172 107.153 250.032 107.318 250.032C107.533 250.032 107.698 250.114 107.813 250.279L108.457 251.071C108.061 251.566 107.533 252.027 106.873 252.456C106.23 252.885 105.504 253.256 104.696 253.57C103.904 253.867 103.046 254.106 102.122 254.287C101.215 254.469 100.3 254.559 99.376 254.559C97.6935 254.559 96.1594 254.271 94.7738 253.693C93.3882 253.1 92.2006 252.242 91.2108 251.12C90.2211 249.999 89.4541 248.629 88.9098 247.013C88.3819 245.38 88.118 243.516 88.118 241.421C88.118 239.656 88.3654 238.031 88.8603 236.547C89.3716 235.046 90.0974 233.759 91.0376 232.687C91.9944 231.598 93.1573 230.749 94.5264 230.138C95.912 229.528 97.479 229.223 99.2275 229.223C100.613 229.223 101.9 229.462 103.087 229.94C104.275 230.419 105.306 231.12 106.18 232.043C107.055 232.951 107.739 234.072 108.234 235.408C108.745 236.745 109.001 238.279 109.001 240.011C109.001 240.374 108.951 240.621 108.852 240.753C108.754 240.885 108.589 240.951 108.358 240.951H90.4438ZM126.716 242.336C124.374 242.419 122.353 242.609 120.654 242.906C118.972 243.186 117.578 243.574 116.473 244.068C115.384 244.563 114.576 245.157 114.048 245.85C113.52 246.526 113.256 247.302 113.256 248.176C113.256 249.001 113.388 249.718 113.652 250.328C113.932 250.922 114.295 251.417 114.741 251.813C115.202 252.192 115.73 252.473 116.324 252.654C116.918 252.836 117.536 252.926 118.18 252.926C119.137 252.926 120.011 252.827 120.803 252.63C121.611 252.415 122.353 252.126 123.029 251.764C123.722 251.384 124.365 250.939 124.959 250.427C125.553 249.916 126.139 249.363 126.716 248.77V242.336ZM112.241 233.107C113.528 231.821 114.881 230.848 116.299 230.188C117.718 229.528 119.326 229.198 121.124 229.198C122.444 229.198 123.598 229.412 124.588 229.841C125.578 230.254 126.394 230.856 127.038 231.648C127.698 232.423 128.192 233.371 128.522 234.493C128.852 235.598 129.017 236.835 129.017 238.204V254.238H128.077C127.582 254.238 127.277 254.007 127.161 253.545L126.815 250.378C126.139 251.038 125.462 251.632 124.786 252.159C124.126 252.687 123.434 253.133 122.708 253.496C121.982 253.858 121.198 254.139 120.357 254.337C119.516 254.535 118.592 254.634 117.586 254.634C116.745 254.634 115.928 254.51 115.136 254.263C114.345 254.015 113.635 253.636 113.009 253.124C112.398 252.613 111.903 251.961 111.524 251.17C111.161 250.361 110.98 249.396 110.98 248.275C110.98 247.236 111.277 246.271 111.87 245.38C112.464 244.489 113.396 243.714 114.666 243.054C115.936 242.394 117.561 241.866 119.541 241.47C121.537 241.075 123.928 240.844 126.716 240.778V238.204C126.716 235.928 126.221 234.18 125.231 232.959C124.258 231.722 122.807 231.103 120.877 231.103C119.689 231.103 118.675 231.268 117.833 231.598C117.009 231.928 116.308 232.291 115.73 232.687C115.153 233.083 114.683 233.446 114.32 233.775C113.957 234.105 113.652 234.27 113.404 234.27C113.223 234.27 113.075 234.229 112.959 234.147C112.844 234.064 112.745 233.957 112.662 233.825L112.241 233.107ZM150.983 232.909C150.9 232.992 150.818 233.066 150.735 233.132C150.669 233.182 150.57 233.206 150.438 233.206C150.273 233.206 150.051 233.099 149.77 232.885C149.49 232.654 149.11 232.406 148.632 232.142C148.154 231.878 147.552 231.639 146.826 231.425C146.117 231.194 145.251 231.078 144.228 231.078C142.809 231.078 141.547 231.334 140.442 231.846C139.353 232.34 138.43 233.058 137.671 233.998C136.912 234.938 136.335 236.077 135.939 237.413C135.56 238.749 135.37 240.25 135.37 241.916C135.37 243.648 135.568 245.182 135.964 246.518C136.376 247.854 136.953 248.984 137.696 249.908C138.438 250.815 139.337 251.508 140.393 251.986C141.448 252.465 142.62 252.704 143.906 252.704C145.094 252.704 146.084 252.564 146.875 252.283C147.684 252.003 148.343 251.698 148.855 251.368C149.383 251.038 149.795 250.733 150.092 250.452C150.389 250.172 150.636 250.032 150.834 250.032C151.032 250.032 151.197 250.114 151.329 250.279L151.948 251.071C151.568 251.566 151.09 252.027 150.513 252.456C149.935 252.885 149.284 253.256 148.558 253.57C147.832 253.883 147.04 254.122 146.183 254.287C145.341 254.469 144.459 254.559 143.535 254.559C141.968 254.559 140.533 254.279 139.23 253.718C137.943 253.141 136.83 252.316 135.889 251.244C134.966 250.155 134.24 248.827 133.712 247.26C133.201 245.693 132.945 243.912 132.945 241.916C132.945 240.035 133.193 238.32 133.687 236.769C134.182 235.219 134.908 233.883 135.865 232.761C136.821 231.639 137.984 230.773 139.353 230.163C140.739 229.536 142.323 229.223 144.104 229.223C145.704 229.223 147.123 229.478 148.36 229.99C149.597 230.501 150.677 231.194 151.601 232.068L150.983 232.909ZM157.672 233.775C158.81 232.39 160.105 231.285 161.557 230.46C163.025 229.635 164.666 229.223 166.481 229.223C167.833 229.223 169.021 229.437 170.044 229.866C171.083 230.295 171.94 230.914 172.617 231.722C173.293 232.53 173.804 233.503 174.151 234.641C174.497 235.78 174.67 237.066 174.67 238.501V254.238H172.295V238.501C172.295 236.192 171.767 234.386 170.712 233.083C169.656 231.763 168.048 231.103 165.887 231.103C164.287 231.103 162.786 231.516 161.384 232.34C159.998 233.149 158.761 234.279 157.672 235.73V254.238H155.297V218.237H157.672V233.775ZM197.3 239.442C197.3 238.122 197.111 236.943 196.731 235.903C196.369 234.848 195.849 233.957 195.173 233.231C194.496 232.505 193.688 231.953 192.748 231.573C191.824 231.177 190.801 230.98 189.68 230.98C188.41 230.98 187.271 231.177 186.265 231.573C185.259 231.969 184.385 232.538 183.642 233.281C182.917 234.023 182.331 234.914 181.886 235.953C181.44 236.992 181.143 238.155 180.995 239.442H197.3ZM180.871 240.951V241.421C180.871 243.268 181.086 244.893 181.515 246.295C181.943 247.697 182.554 248.877 183.346 249.834C184.137 250.774 185.094 251.483 186.216 251.961C187.337 252.44 188.591 252.679 189.977 252.679C191.214 252.679 192.286 252.547 193.193 252.283C194.1 252.003 194.859 251.698 195.47 251.368C196.096 251.021 196.591 250.716 196.954 250.452C197.317 250.172 197.581 250.032 197.746 250.032C197.96 250.032 198.125 250.114 198.241 250.279L198.884 251.071C198.488 251.566 197.96 252.027 197.3 252.456C196.657 252.885 195.931 253.256 195.123 253.57C194.331 253.867 193.474 254.106 192.55 254.287C191.643 254.469 190.727 254.559 189.803 254.559C188.121 254.559 186.587 254.271 185.201 253.693C183.816 253.1 182.628 252.242 181.638 251.12C180.649 249.999 179.882 248.629 179.337 247.013C178.809 245.38 178.545 243.516 178.545 241.421C178.545 239.656 178.793 238.031 179.288 236.547C179.799 235.046 180.525 233.759 181.465 232.687C182.422 231.598 183.585 230.749 184.954 230.138C186.339 229.528 187.906 229.223 189.655 229.223C191.041 229.223 192.327 229.462 193.515 229.94C194.702 230.419 195.733 231.12 196.608 232.043C197.482 232.951 198.166 234.072 198.661 235.408C199.173 236.745 199.428 238.279 199.428 240.011C199.428 240.374 199.379 240.621 199.28 240.753C199.181 240.885 199.016 240.951 198.785 240.951H180.871ZM205.613 235.557C205.993 234.551 206.422 233.66 206.9 232.885C207.395 232.093 207.956 231.425 208.582 230.881C209.226 230.336 209.935 229.924 210.71 229.643C211.502 229.346 212.376 229.198 213.333 229.198C213.844 229.198 214.348 229.248 214.842 229.346C215.337 229.429 215.774 229.586 216.154 229.817L215.956 231.45C215.873 231.714 215.717 231.846 215.486 231.846C215.288 231.846 214.983 231.788 214.57 231.672C214.174 231.557 213.646 231.499 212.987 231.499C212.03 231.499 211.18 231.648 210.438 231.944C209.712 232.225 209.053 232.654 208.459 233.231C207.881 233.808 207.37 234.526 206.925 235.384C206.496 236.225 206.1 237.198 205.737 238.303V254.238H203.362V229.619H204.624C204.904 229.619 205.102 229.676 205.217 229.792C205.333 229.907 205.407 230.105 205.44 230.386L205.613 235.557ZM231.626 232.662C231.494 232.893 231.304 233.008 231.057 233.008C230.875 233.008 230.644 232.909 230.364 232.712C230.083 232.497 229.704 232.266 229.226 232.019C228.764 231.755 228.187 231.524 227.494 231.326C226.801 231.111 225.96 231.004 224.97 231.004C224.079 231.004 223.263 231.136 222.52 231.4C221.795 231.648 221.168 231.986 220.64 232.415C220.129 232.843 219.733 233.347 219.452 233.924C219.172 234.485 219.032 235.079 219.032 235.705C219.032 236.481 219.23 237.124 219.626 237.635C220.021 238.147 220.533 238.584 221.16 238.947C221.803 239.31 222.537 239.623 223.362 239.887C224.186 240.151 225.019 240.415 225.861 240.679C226.718 240.943 227.56 241.24 228.384 241.569C229.209 241.883 229.935 242.279 230.562 242.757C231.205 243.235 231.725 243.821 232.121 244.514C232.517 245.207 232.714 246.048 232.714 247.038C232.714 248.11 232.525 249.108 232.145 250.032C231.766 250.955 231.205 251.755 230.463 252.432C229.737 253.108 228.838 253.644 227.766 254.04C226.694 254.436 225.465 254.634 224.079 254.634C222.347 254.634 220.854 254.362 219.601 253.817C218.347 253.256 217.225 252.531 216.236 251.64L216.78 250.799C216.863 250.667 216.953 250.568 217.052 250.502C217.168 250.436 217.316 250.403 217.498 250.403C217.712 250.403 217.968 250.535 218.265 250.799C218.578 251.062 218.99 251.351 219.502 251.665C220.013 251.961 220.64 252.242 221.382 252.506C222.141 252.77 223.073 252.902 224.178 252.902C225.217 252.902 226.133 252.761 226.925 252.481C227.716 252.184 228.376 251.788 228.904 251.293C229.432 250.799 229.828 250.221 230.092 249.561C230.372 248.885 230.512 248.176 230.512 247.434C230.512 246.609 230.314 245.924 229.919 245.38C229.523 244.836 229.003 244.374 228.36 243.994C227.716 243.615 226.982 243.293 226.158 243.029C225.349 242.765 224.516 242.501 223.659 242.238C222.801 241.974 221.96 241.685 221.135 241.372C220.327 241.058 219.601 240.662 218.957 240.184C218.314 239.705 217.795 239.128 217.399 238.452C217.003 237.759 216.805 236.901 216.805 235.879C216.805 235.004 216.995 234.163 217.374 233.355C217.753 232.547 218.289 231.837 218.982 231.227C219.691 230.617 220.549 230.13 221.555 229.767C222.562 229.404 223.692 229.223 224.945 229.223C226.446 229.223 227.774 229.437 228.929 229.866C230.1 230.295 231.164 230.955 232.121 231.846L231.626 232.662Z" fill="white"/>
<path d="M93.4338 221.379V221.75H93.805V221.379H93.4338ZM81.1366 221.379V221.008H80.7655V221.379H81.1366ZM81.1366 254.238V254.609H81.5078V254.238H81.1366ZM78.5881 254.238H78.217V254.609H78.5881V254.238ZM78.5881 221.379H78.9593V221.008H78.5881V221.379ZM66.2167 221.379H65.8455V221.75H66.2167V221.379ZM66.2167 219.227V218.856H65.8455V219.227H66.2167ZM93.4338 219.227H93.805V218.856H93.4338V219.227ZM93.4338 221.008H81.1366V221.75H93.4338V221.008ZM80.7655 221.379V254.238H81.5078V221.379H80.7655ZM81.1366 253.867H78.5881V254.609H81.1366V253.867ZM78.9593 254.238V221.379H78.217V254.238H78.9593ZM78.5881 221.008H66.2167V221.75H78.5881V221.008ZM66.5878 221.379V219.227H65.8455V221.379H66.5878ZM66.2167 219.598H93.4338V218.856H66.2167V219.598ZM93.0627 219.227V221.379H93.805V219.227H93.0627ZM106.873 239.442V239.813H107.244V239.442H106.873ZM106.304 235.903L105.953 236.024L105.955 236.031L106.304 235.903ZM104.745 233.231L104.474 233.484L104.474 233.484L104.745 233.231ZM102.32 231.573L102.174 231.915L102.182 231.918L102.32 231.573ZM95.8378 231.573L95.7019 231.228L95.8378 231.573ZM93.215 233.281L92.9526 233.018L92.9496 233.021L93.215 233.281ZM91.4583 235.953L91.7994 236.099L91.4583 235.953ZM90.5675 239.442L90.1988 239.399L90.1511 239.813H90.5675V239.442ZM90.4438 240.951V240.58H90.0727V240.951H90.4438ZM91.0871 246.295L90.7322 246.404L91.0871 246.295ZM92.9181 249.834L92.6322 250.07L92.6342 250.073L92.9181 249.834ZM95.7883 251.961L95.9339 251.62L95.7883 251.961ZM102.766 252.283L102.869 252.64L102.875 252.638L102.766 252.283ZM105.042 251.368L105.219 251.694L105.222 251.692L105.042 251.368ZM106.527 250.452L106.745 250.752L106.754 250.746L106.527 250.452ZM107.813 250.279L107.509 250.492L107.517 250.503L107.525 250.513L107.813 250.279ZM108.457 251.071L108.746 251.303L108.933 251.069L108.745 250.837L108.457 251.071ZM106.873 252.456L106.671 252.145L106.667 252.147L106.873 252.456ZM104.696 253.57L104.826 253.917L104.83 253.916L104.696 253.57ZM102.122 254.287L102.051 253.923L102.05 253.923L102.122 254.287ZM94.7738 253.693L94.6276 254.035L94.6311 254.036L94.7738 253.693ZM91.2108 251.12L91.4891 250.875L91.2108 251.12ZM88.9098 247.013L88.5566 247.127L88.558 247.131L88.9098 247.013ZM88.8603 236.547L88.5089 236.427L88.5082 236.429L88.8603 236.547ZM91.0376 232.687L90.7589 232.442L90.7586 232.442L91.0376 232.687ZM94.5264 230.138L94.3768 229.799L94.3753 229.799L94.5264 230.138ZM103.087 229.94L103.226 229.596L103.087 229.94ZM106.18 232.043L105.911 232.299L105.913 232.301L106.18 232.043ZM108.234 235.408L107.886 235.537L107.887 235.541L108.234 235.408ZM108.852 240.753L108.556 240.53V240.53L108.852 240.753ZM107.244 239.442C107.244 238.087 107.049 236.863 106.653 235.776L105.955 236.031C106.317 237.022 106.502 238.157 106.502 239.442H107.244ZM106.655 235.783C106.277 234.684 105.733 233.746 105.017 232.978L104.474 233.484C105.11 234.167 105.605 235.011 105.953 236.024L106.655 235.783ZM105.017 232.978C104.303 232.212 103.449 231.628 102.459 231.229L102.182 231.918C103.073 232.277 103.835 232.799 104.474 233.484L105.017 232.978ZM102.467 231.232C101.492 230.814 100.418 230.608 99.2523 230.608V231.351C100.33 231.351 101.302 231.541 102.174 231.914L102.467 231.232ZM99.2523 230.608C97.9436 230.608 96.7582 230.812 95.7019 231.228L95.9736 231.919C96.9297 231.543 98.0207 231.351 99.2523 231.351V230.608ZM95.7019 231.228C94.6497 231.642 93.732 232.239 92.9526 233.018L93.4774 233.543C94.1826 232.838 95.0134 232.297 95.9736 231.919L95.7019 231.228ZM92.9496 233.021C92.1891 233.799 91.5789 234.729 91.1171 235.807L91.7994 236.099C92.2283 235.098 92.7894 234.247 93.4804 233.54L92.9496 233.021ZM91.1171 235.807C90.6557 236.883 90.3508 238.082 90.1988 239.399L90.9362 239.484C91.0811 238.228 91.3701 237.101 91.7994 236.099L91.1171 235.807ZM90.5675 239.813H106.873V239.07H90.5675V239.813ZM90.0727 240.951V241.421H90.815V240.951H90.0727ZM90.0727 241.421C90.0727 243.296 90.2902 244.959 90.7322 246.404L91.442 246.187C91.0263 244.828 90.815 243.241 90.815 241.421H90.0727ZM90.7322 246.404C91.1729 247.844 91.8041 249.07 92.6322 250.07L93.204 249.597C92.4486 248.684 91.8591 247.55 91.442 246.187L90.7322 246.404ZM92.6342 250.073C93.4631 251.057 94.4671 251.801 95.6427 252.303L95.9339 251.62C94.8661 251.165 93.9566 250.491 93.202 249.594L92.6342 250.073ZM95.6427 252.303C96.8162 252.803 98.1203 253.05 99.5492 253.05V252.308C98.2068 252.308 97.0036 252.076 95.9339 251.62L95.6427 252.303ZM99.5492 253.05C100.811 253.05 101.92 252.916 102.869 252.639L102.662 251.927C101.797 252.178 100.761 252.308 99.5492 252.308V253.05ZM102.875 252.638C103.798 252.353 104.581 252.039 105.219 251.694L104.866 251.041C104.283 251.356 103.548 251.653 102.656 251.929L102.875 252.638ZM105.222 251.692C105.855 251.342 106.365 251.029 106.745 250.752L106.308 250.152C105.963 250.403 105.483 250.7 104.863 251.043L105.222 251.692ZM106.754 250.746C106.926 250.612 107.065 250.521 107.171 250.464C107.286 250.403 107.328 250.403 107.318 250.403V249.66C107.144 249.66 106.971 249.73 106.823 249.809C106.665 249.893 106.49 250.011 106.3 250.158L106.754 250.746ZM107.318 250.403C107.421 250.403 107.468 250.433 107.509 250.492L108.117 250.066C107.927 249.795 107.645 249.66 107.318 249.66V250.403ZM107.525 250.513L108.169 251.305L108.745 250.837L108.101 250.045L107.525 250.513ZM108.167 250.839C107.801 251.296 107.305 251.733 106.671 252.145L107.075 252.767C107.761 252.322 108.321 251.835 108.746 251.303L108.167 250.839ZM106.667 252.147C106.049 252.56 105.348 252.919 104.562 253.224L104.83 253.916C105.66 253.594 106.411 253.211 107.079 252.765L106.667 252.147ZM104.565 253.222C103.795 253.511 102.957 253.745 102.051 253.923L102.194 254.651C103.136 254.467 104.013 254.222 104.826 253.917L104.565 253.222ZM102.05 253.923C101.166 254.1 100.275 254.188 99.376 254.188V254.931C100.324 254.931 101.264 254.837 102.195 254.651L102.05 253.923ZM99.376 254.188C97.7365 254.188 96.2518 253.907 94.9166 253.351L94.6311 254.036C96.0671 254.634 97.6504 254.931 99.376 254.931V254.188ZM94.92 253.352C93.5846 252.78 92.4422 251.955 91.4891 250.875L90.9325 251.366C91.959 252.529 93.1918 253.419 94.6276 254.035L94.92 253.352ZM91.4891 250.875C90.5364 249.795 89.7923 248.471 89.2615 246.894L88.558 247.131C89.1159 248.788 89.9059 250.202 90.9325 251.366L91.4891 250.875ZM89.2629 246.899C88.7493 245.31 88.4891 243.485 88.4891 241.421H87.7468C87.7468 243.546 88.0145 245.45 88.5566 247.127L89.2629 246.899ZM88.4891 241.421C88.4891 239.691 88.7316 238.106 89.2124 236.664L88.5082 236.429C87.9992 237.956 87.7468 239.621 87.7468 241.421H88.4891ZM89.2116 236.666C89.709 235.206 90.4119 233.963 91.3167 232.931L90.7586 232.442C89.7829 233.555 89.0342 234.885 88.5089 236.427L89.2116 236.666ZM91.3164 232.932C92.2366 231.885 93.3555 231.067 94.6775 230.477L94.3753 229.799C92.959 230.431 91.7521 231.312 90.7589 232.442L91.3164 232.932ZM94.676 230.478C96.0077 229.891 97.5226 229.594 99.2275 229.594V228.852C97.4354 228.852 95.8163 229.165 94.3768 229.799L94.676 230.478ZM99.2275 229.594C100.57 229.594 101.809 229.825 102.949 230.285L103.226 229.596C101.991 229.099 100.657 228.852 99.2275 228.852V229.594ZM102.949 230.285C104.087 230.743 105.073 231.414 105.911 232.299L106.45 231.788C105.539 230.826 104.463 230.094 103.226 229.596L102.949 230.285ZM105.913 232.301C106.747 233.167 107.406 234.243 107.886 235.537L108.582 235.28C108.072 233.902 107.362 232.735 106.448 231.786L105.913 232.301ZM107.887 235.541C108.379 236.827 108.63 238.315 108.63 240.011H109.372C109.372 238.243 109.111 236.662 108.581 235.276L107.887 235.541ZM108.63 240.011C108.63 240.177 108.618 240.304 108.6 240.396C108.581 240.491 108.559 240.526 108.556 240.53L109.149 240.976C109.245 240.848 109.297 240.693 109.328 240.541C109.359 240.386 109.372 240.207 109.372 240.011H108.63ZM108.556 240.53C108.552 240.535 108.522 240.58 108.358 240.58V241.322C108.656 241.322 108.955 241.235 109.149 240.976L108.556 240.53ZM108.358 240.58H90.4438V241.322H108.358V240.58ZM126.716 242.336H127.087V241.952L126.703 241.966L126.716 242.336ZM120.654 242.906L120.715 243.272L120.718 243.271L120.654 242.906ZM116.473 244.068L116.321 243.73L116.319 243.731L116.473 244.068ZM114.048 245.85L114.34 246.078L114.343 246.075L114.048 245.85ZM113.652 250.328L113.311 250.476L113.316 250.487L113.652 250.328ZM114.741 251.813L114.494 252.09L114.499 252.095L114.505 252.1L114.741 251.813ZM116.324 252.654L116.433 252.299L116.324 252.654ZM120.803 252.63L120.893 252.99L120.898 252.988L120.803 252.63ZM123.029 251.764L123.205 252.091L123.208 252.089L123.029 251.764ZM124.959 250.427L124.717 250.146L124.959 250.427ZM126.716 248.77L126.982 249.028L127.087 248.92V248.77H126.716ZM112.241 233.107L111.979 232.845L111.776 233.048L111.921 233.295L112.241 233.107ZM116.299 230.188L116.143 229.851L116.299 230.188ZM124.588 229.841L124.441 230.182L124.445 230.184L124.588 229.841ZM127.038 231.648L126.75 231.882L126.755 231.888L127.038 231.648ZM128.522 234.493L128.166 234.598L128.167 234.599L128.522 234.493ZM129.017 254.238V254.609H129.388V254.238H129.017ZM127.161 253.545L126.792 253.585L126.795 253.61L126.801 253.635L127.161 253.545ZM126.815 250.378L127.184 250.338L127.101 249.58L126.556 250.112L126.815 250.378ZM124.786 252.159L124.558 251.867L124.554 251.87L124.786 252.159ZM122.708 253.496L122.542 253.164L122.708 253.496ZM120.357 254.337L120.272 253.975L120.357 254.337ZM115.136 254.263L115.247 253.908L115.136 254.263ZM113.009 253.124L112.77 253.409L112.774 253.412L113.009 253.124ZM111.524 251.17L111.185 251.322L111.189 251.33L111.524 251.17ZM111.87 245.38L112.179 245.586L111.87 245.38ZM119.541 241.47L119.468 241.106L119.468 241.107L119.541 241.47ZM126.716 240.778L126.725 241.149L127.087 241.14V240.778H126.716ZM125.231 232.959L124.94 233.188L124.943 233.193L125.231 232.959ZM117.833 231.598L117.698 231.253L117.696 231.253L117.833 231.598ZM114.32 233.775L114.57 234.05H114.57L114.32 233.775ZM112.959 234.147L113.175 233.845L112.959 234.147ZM112.662 233.825L112.342 234.013L112.347 234.022L112.662 233.825ZM126.703 241.966C124.349 242.048 122.311 242.239 120.59 242.54L120.718 243.271C122.395 242.978 124.398 242.789 126.729 242.707L126.703 241.966ZM120.593 242.539C118.891 242.823 117.464 243.218 116.321 243.73L116.624 244.407C117.691 243.929 119.052 243.549 120.715 243.272L120.593 242.539ZM116.319 243.731C115.194 244.242 114.329 244.869 113.753 245.625L114.343 246.075C114.822 245.446 115.573 244.885 116.626 244.406L116.319 243.731ZM113.755 245.622C113.175 246.364 112.885 247.221 112.885 248.176H113.627C113.627 247.383 113.864 246.688 114.34 246.078L113.755 245.622ZM112.885 248.176C112.885 249.039 113.023 249.809 113.311 250.476L113.992 250.181C113.753 249.627 113.627 248.962 113.627 248.176H112.885ZM113.316 250.487C113.616 251.121 114.008 251.658 114.494 252.09L114.987 251.536C114.583 251.176 114.249 250.723 113.987 250.17L113.316 250.487ZM114.505 252.1C115.006 252.511 115.577 252.814 116.216 253.009L116.433 252.299C115.883 252.131 115.399 251.874 114.976 251.526L114.505 252.1ZM116.216 253.009C116.846 253.202 117.501 253.298 118.18 253.298V252.555C117.572 252.555 116.99 252.47 116.433 252.299L116.216 253.009ZM118.18 253.298C119.162 253.298 120.067 253.196 120.893 252.99L120.713 252.269C119.955 252.459 119.111 252.555 118.18 252.555V253.298ZM120.898 252.988C121.731 252.767 122.501 252.468 123.205 252.091L122.854 251.436C122.205 251.785 121.49 252.063 120.707 252.271L120.898 252.988ZM123.208 252.089C123.923 251.697 124.588 251.237 125.201 250.709L124.717 250.146C124.143 250.64 123.521 251.071 122.851 251.438L123.208 252.089ZM125.201 250.709C125.804 250.19 126.398 249.63 126.982 249.028L126.45 248.511C125.88 249.097 125.302 249.642 124.717 250.146L125.201 250.709ZM127.087 248.77V242.336H126.345V248.77H127.087ZM112.504 233.37C113.765 232.109 115.082 231.163 116.456 230.524L116.143 229.851C114.679 230.532 113.291 231.533 111.979 232.845L112.504 233.37ZM116.456 230.524C117.819 229.89 119.372 229.569 121.124 229.569V228.827C119.28 228.827 117.617 229.165 116.143 229.851L116.456 230.524ZM121.124 229.569C122.404 229.569 123.507 229.777 124.441 230.182L124.736 229.501C123.69 229.048 122.484 228.827 121.124 228.827V229.569ZM124.445 230.184C125.381 230.574 126.147 231.14 126.75 231.882L127.326 231.414C126.642 230.572 125.774 229.933 124.731 229.499L124.445 230.184ZM126.755 231.888C127.377 232.618 127.849 233.519 128.166 234.598L128.878 234.388C128.536 233.224 128.019 232.227 127.32 231.407L126.755 231.888ZM128.167 234.599C128.485 235.664 128.646 236.865 128.646 238.204H129.388C129.388 236.806 129.22 235.532 128.878 234.387L128.167 234.599ZM128.646 238.204V254.238H129.388V238.204H128.646ZM129.017 253.867H128.077V254.609H129.017V253.867ZM128.077 253.867C127.887 253.867 127.772 253.823 127.701 253.769C127.631 253.716 127.564 253.624 127.521 253.455L126.801 253.635C126.875 253.928 127.018 254.182 127.253 254.361C127.487 254.537 127.772 254.609 128.077 254.609V253.867ZM127.53 253.505L127.184 250.338L126.446 250.418L126.792 253.585L127.53 253.505ZM126.556 250.112C125.888 250.763 125.222 251.348 124.558 251.867L125.014 252.452C125.703 251.915 126.389 251.312 127.074 250.644L126.556 250.112ZM124.554 251.87C123.914 252.382 123.243 252.813 122.542 253.164L122.874 253.827C123.624 253.452 124.339 252.993 125.018 252.449L124.554 251.87ZM122.542 253.164C121.843 253.513 121.087 253.784 120.272 253.975L120.442 254.698C121.31 254.494 122.121 254.204 122.874 253.827L122.542 253.164ZM120.272 253.975C119.463 254.166 118.568 254.263 117.586 254.263V255.005C118.616 255.005 119.569 254.904 120.442 254.698L120.272 253.975ZM117.586 254.263C116.782 254.263 116.003 254.144 115.247 253.908L115.026 254.617C115.854 254.876 116.708 255.005 117.586 255.005V254.263ZM115.247 253.908C114.499 253.675 113.832 253.317 113.243 252.837L112.774 253.412C113.438 253.954 114.19 254.356 115.026 254.617L115.247 253.908ZM113.247 252.84C112.681 252.366 112.218 251.758 111.859 251.009L111.189 251.33C111.589 252.165 112.115 252.86 112.77 253.409L113.247 252.84ZM111.863 251.018C111.526 250.268 111.351 249.358 111.351 248.275H110.608C110.608 249.435 110.796 250.455 111.185 251.322L111.863 251.018ZM111.351 248.275C111.351 247.311 111.625 246.417 112.179 245.586L111.562 245.174C110.928 246.124 110.608 247.16 110.608 248.275H111.351ZM112.179 245.586C112.728 244.762 113.605 244.024 114.837 243.383L114.495 242.725C113.188 243.404 112.2 244.216 111.562 245.174L112.179 245.586ZM114.837 243.383C116.067 242.745 117.655 242.226 119.613 241.834L119.468 241.107C117.467 241.507 115.806 242.044 114.495 242.725L114.837 243.383ZM119.613 241.835C121.582 241.444 123.951 241.214 126.725 241.149L126.707 240.407C123.906 240.473 121.491 240.705 119.468 241.106L119.613 241.835ZM127.087 240.778V238.204H126.345V240.778H127.087ZM127.087 238.204C127.087 235.88 126.583 234.036 125.52 232.725L124.943 233.193C125.86 234.323 126.345 235.976 126.345 238.204H127.087ZM125.523 232.729C124.464 231.383 122.892 230.732 120.877 230.732V231.474C122.721 231.474 124.053 232.061 124.94 233.188L125.523 232.729ZM120.877 230.732C119.657 230.732 118.594 230.901 117.698 231.253L117.969 231.944C118.756 231.635 119.722 231.474 120.877 231.474V230.732ZM117.696 231.253C116.852 231.591 116.125 231.966 115.52 232.381L115.94 232.993C116.49 232.616 117.165 232.265 117.971 231.943L117.696 231.253ZM115.52 232.381C114.934 232.782 114.45 233.156 114.07 233.501L114.57 234.05C114.916 233.735 115.371 233.383 115.94 232.993L115.52 232.381ZM114.07 233.501C113.718 233.821 113.503 233.899 113.404 233.899V234.641C113.8 234.641 114.196 234.39 114.57 234.05L114.07 233.501ZM113.404 233.899C113.279 233.899 113.212 233.871 113.175 233.845L112.743 234.449C112.937 234.587 113.167 234.641 113.404 234.641V233.899ZM113.175 233.845C113.103 233.793 113.036 233.723 112.977 233.628L112.347 234.022C112.453 234.191 112.585 234.335 112.743 234.449L113.175 233.845ZM112.982 233.637L112.562 232.92L111.921 233.295L112.342 234.013L112.982 233.637ZM150.983 232.909L151.245 233.172L151.265 233.152L151.282 233.129L150.983 232.909ZM150.735 233.132L150.958 233.429L150.967 233.422L150.735 233.132ZM149.77 232.885L149.534 233.171L149.545 233.18L149.77 232.885ZM148.632 232.142L148.811 231.817L148.632 232.142ZM146.826 231.425L146.711 231.778L146.721 231.781L146.826 231.425ZM140.442 231.846L140.596 232.183L140.598 232.182L140.442 231.846ZM137.671 233.998L137.96 234.231L137.671 233.998ZM135.939 237.413L135.583 237.307L135.582 237.311L135.939 237.413ZM135.964 246.518L135.608 246.623L135.609 246.627L135.964 246.518ZM137.696 249.908L137.406 250.14L137.408 250.143L137.696 249.908ZM140.393 251.986L140.546 251.648L140.393 251.986ZM146.875 252.283L146.754 251.932L146.751 251.933L146.875 252.283ZM148.855 251.368L148.658 251.053L148.654 251.056L148.855 251.368ZM150.092 250.452L149.837 250.182L150.092 250.452ZM151.329 250.279L151.622 250.05L151.619 250.047L151.329 250.279ZM151.948 251.071L152.242 251.297L152.417 251.069L152.24 250.842L151.948 251.071ZM150.513 252.456L150.291 252.158L150.513 252.456ZM148.558 253.57L148.411 253.229L148.558 253.57ZM146.183 254.287L146.112 253.923L146.104 253.924L146.183 254.287ZM139.23 253.718L139.078 254.057L139.083 254.059L139.23 253.718ZM135.889 251.244L135.606 251.484L135.61 251.489L135.889 251.244ZM133.712 247.26L133.359 247.375L133.36 247.379L133.712 247.26ZM133.687 236.769L133.334 236.656L133.687 236.769ZM135.865 232.761L136.147 233.002L135.865 232.761ZM139.353 230.163L139.505 230.502L139.506 230.501L139.353 230.163ZM148.36 229.99L148.218 230.333L148.36 229.99ZM151.601 232.068L151.9 232.288L152.094 232.024L151.856 231.799L151.601 232.068ZM150.72 232.647C150.646 232.721 150.574 232.786 150.503 232.842L150.967 233.422C151.061 233.347 151.154 233.263 151.245 233.172L150.72 232.647ZM150.513 232.835C150.527 232.824 150.534 232.825 150.521 232.828C150.509 232.831 150.482 232.835 150.438 232.835V233.578C150.606 233.578 150.799 233.548 150.958 233.429L150.513 232.835ZM150.438 232.835C150.432 232.835 150.393 232.832 150.309 232.792C150.227 232.752 150.124 232.688 149.996 232.59L149.545 233.18C149.697 233.296 149.845 233.392 149.987 233.46C150.125 233.527 150.279 233.578 150.438 233.578V232.835ZM150.006 232.598C149.702 232.347 149.301 232.088 148.811 231.817L148.453 232.467C148.92 232.725 149.278 232.96 149.534 233.171L150.006 232.598ZM148.811 231.817C148.302 231.537 147.673 231.288 146.931 231.069L146.721 231.781C147.43 231.99 148.005 232.22 148.453 232.467L148.811 231.817ZM146.941 231.072C146.183 230.825 145.276 230.707 144.228 230.707V231.45C145.225 231.45 146.05 231.562 146.711 231.778L146.941 231.072ZM144.228 230.707C142.764 230.707 141.448 230.971 140.286 231.509L140.598 232.182C141.647 231.697 142.854 231.45 144.228 231.45V230.707ZM140.289 231.508C139.147 232.027 138.177 232.78 137.382 233.765L137.96 234.231C138.683 233.335 139.56 232.654 140.596 232.183L140.289 231.508ZM137.382 233.765C136.589 234.748 135.991 235.932 135.583 237.307L136.295 237.518C136.679 236.221 137.236 235.128 137.96 234.231L137.382 233.765ZM135.582 237.311C135.192 238.686 134.999 240.222 134.999 241.916H135.741C135.741 240.278 135.928 238.811 136.296 237.514L135.582 237.311ZM134.999 241.916C134.999 243.675 135.2 245.246 135.608 246.623L136.32 246.413C135.936 245.118 135.741 243.62 135.741 241.916H134.999ZM135.609 246.627C136.033 248 136.63 249.174 137.406 250.14L137.985 249.675C137.277 248.794 136.719 247.708 136.318 246.409L135.609 246.627ZM137.408 250.143C138.186 251.094 139.131 251.822 140.24 252.324L140.546 251.648C139.543 251.194 138.69 250.536 137.983 249.673L137.408 250.143ZM140.24 252.324C141.348 252.827 142.573 253.075 143.906 253.075V252.333C142.667 252.333 141.548 252.102 140.546 251.648L140.24 252.324ZM143.906 253.075C145.12 253.075 146.155 252.932 146.999 252.633L146.751 251.933C146.012 252.195 145.068 252.333 143.906 252.333V253.075ZM146.997 252.634C147.823 252.347 148.512 252.03 149.056 251.679L148.654 251.056C148.175 251.365 147.544 251.658 146.754 251.932L146.997 252.634ZM149.051 251.682C149.59 251.345 150.025 251.026 150.347 250.722L149.837 250.182C149.565 250.44 149.175 250.73 148.658 251.053L149.051 251.682ZM150.347 250.722C150.637 250.448 150.791 250.403 150.834 250.403V249.66C150.481 249.66 150.141 249.895 149.837 250.182L150.347 250.722ZM150.834 250.403C150.911 250.403 150.972 250.427 151.039 250.511L151.619 250.047C151.422 249.801 151.153 249.66 150.834 249.66V250.403ZM151.037 250.507L151.655 251.299L152.24 250.842L151.621 250.05L151.037 250.507ZM151.653 250.845C151.298 251.309 150.845 251.747 150.291 252.158L150.734 252.754C151.335 252.308 151.839 251.823 152.242 251.297L151.653 250.845ZM150.291 252.158C149.739 252.569 149.113 252.926 148.411 253.229L148.705 253.91C149.454 253.587 150.131 253.202 150.734 252.754L150.291 252.158ZM148.411 253.229C147.712 253.531 146.946 253.762 146.112 253.923L146.253 254.652C147.134 254.482 147.952 254.236 148.705 253.91L148.411 253.229ZM146.104 253.924C145.291 254.1 144.434 254.188 143.535 254.188V254.931C144.483 254.931 145.392 254.837 146.261 254.65L146.104 253.924ZM143.535 254.188C142.013 254.188 140.629 253.916 139.376 253.377L139.083 254.059C140.437 254.642 141.923 254.931 143.535 254.931V254.188ZM139.382 253.38C138.144 252.824 137.074 252.032 136.169 250.999L135.61 251.489C136.585 252.6 137.742 253.457 139.078 254.057L139.382 253.38ZM136.172 251.004C135.284 249.956 134.579 248.671 134.064 247.142L133.36 247.379C133.901 248.983 134.648 250.354 135.606 251.484L136.172 251.004ZM134.065 247.145C133.568 245.622 133.316 243.881 133.316 241.916H132.574C132.574 243.943 132.834 245.764 133.359 247.375L134.065 247.145ZM133.316 241.916C133.316 240.068 133.559 238.391 134.041 236.882L133.334 236.656C132.826 238.249 132.574 240.003 132.574 241.916H133.316ZM134.041 236.882C134.522 235.374 135.226 234.082 136.147 233.002L135.582 232.52C134.59 233.683 133.842 235.064 133.334 236.656L134.041 236.882ZM136.147 233.002C137.067 231.923 138.185 231.09 139.505 230.502L139.202 229.824C137.784 230.456 136.576 231.356 135.582 232.52L136.147 233.002ZM139.506 230.501C140.836 229.899 142.366 229.594 144.104 229.594V228.852C142.279 228.852 140.642 229.173 139.201 229.825L139.506 230.501ZM144.104 229.594C145.665 229.594 147.034 229.843 148.218 230.333L148.502 229.647C147.212 229.114 145.743 228.852 144.104 228.852V229.594ZM148.218 230.333C149.416 230.828 150.457 231.496 151.346 232.338L151.856 231.799C150.898 230.892 149.779 230.175 148.502 229.647L148.218 230.333ZM151.302 231.848L150.684 232.69L151.282 233.129L151.9 232.288L151.302 231.848ZM157.672 233.775H157.301V234.812L157.959 234.011L157.672 233.775ZM161.557 230.46L161.375 230.136L161.373 230.137L161.557 230.46ZM170.044 229.866L169.9 230.208L169.902 230.209L170.044 229.866ZM172.617 231.722L172.332 231.96L172.617 231.722ZM174.151 234.641L174.506 234.533L174.151 234.641ZM174.67 254.238V254.609H175.042V254.238H174.67ZM172.295 254.238H171.924V254.609H172.295V254.238ZM170.712 233.083L170.422 233.315L170.423 233.316L170.712 233.083ZM161.384 232.34L161.571 232.661L161.572 232.66L161.384 232.34ZM157.672 235.73L157.375 235.507L157.301 235.606V235.73H157.672ZM157.672 254.238V254.609H158.043V254.238H157.672ZM155.297 254.238H154.926V254.609H155.297V254.238ZM155.297 218.237V217.866H154.926V218.237H155.297ZM157.672 218.237H158.043V217.866H157.672V218.237ZM157.959 234.011C159.07 232.658 160.331 231.583 161.74 230.783L161.373 230.137C159.879 230.986 158.55 232.122 157.385 233.54L157.959 234.011ZM161.739 230.783C163.147 229.992 164.725 229.594 166.481 229.594V228.852C164.607 228.852 162.903 229.278 161.375 230.136L161.739 230.783ZM166.481 229.594C167.794 229.594 168.932 229.802 169.9 230.208L170.187 229.524C169.11 229.072 167.872 228.852 166.481 228.852V229.594ZM169.902 230.209C170.889 230.617 171.697 231.201 172.332 231.96L172.901 231.484C172.184 230.626 171.276 229.973 170.185 229.523L169.902 230.209ZM172.332 231.96C172.973 232.725 173.462 233.653 173.796 234.75L174.506 234.533C174.147 233.354 173.614 232.335 172.901 231.484L172.332 231.96ZM173.796 234.75C174.13 235.846 174.299 237.096 174.299 238.501H175.042C175.042 237.037 174.865 235.713 174.506 234.533L173.796 234.75ZM174.299 238.501V254.238H175.042V238.501H174.299ZM174.67 253.867H172.295V254.609H174.67V253.867ZM172.666 254.238V238.501H171.924V254.238H172.666ZM172.666 238.501C172.666 236.139 172.126 234.239 171 232.849L170.423 233.316C171.408 234.532 171.924 236.245 171.924 238.501H172.666ZM171.001 232.851C169.856 231.42 168.126 230.732 165.887 230.732V231.474C167.969 231.474 169.455 232.107 170.422 233.315L171.001 232.851ZM165.887 230.732C164.219 230.732 162.653 231.163 161.195 232.02L161.572 232.66C162.918 231.868 164.354 231.474 165.887 231.474V230.732ZM161.197 232.02C159.763 232.856 158.49 234.021 157.375 235.507L157.969 235.953C159.032 234.536 160.233 233.441 161.571 232.661L161.197 232.02ZM157.301 235.73V254.238H158.043V235.73H157.301ZM157.672 253.867H155.297V254.609H157.672V253.867ZM155.668 254.238V218.237H154.926V254.238H155.668ZM155.297 218.608H157.672V217.866H155.297V218.608ZM157.301 218.237V233.775H158.043V218.237H157.301ZM197.3 239.442V239.813H197.672V239.442H197.3ZM196.731 235.903L196.38 236.024L196.383 236.031L196.731 235.903ZM195.173 233.231L194.901 233.484V233.484L195.173 233.231ZM192.748 231.573L192.602 231.915L192.609 231.918L192.748 231.573ZM186.265 231.573L186.129 231.228L186.265 231.573ZM183.642 233.281L183.38 233.018L183.377 233.021L183.642 233.281ZM181.886 235.953L182.227 236.099L181.886 235.953ZM180.995 239.442L180.626 239.399L180.579 239.813H180.995V239.442ZM180.871 240.951V240.58H180.5V240.951H180.871ZM181.515 246.295L181.16 246.404L181.515 246.295ZM183.346 249.834L183.06 250.07L183.062 250.073L183.346 249.834ZM186.216 251.961L186.361 251.62L186.216 251.961ZM193.193 252.283L193.297 252.64L193.303 252.638L193.193 252.283ZM195.47 251.368L195.646 251.694L195.649 251.692L195.47 251.368ZM196.954 250.452L197.172 250.752L197.181 250.746L196.954 250.452ZM198.241 250.279L197.937 250.492L197.944 250.503L197.953 250.513L198.241 250.279ZM198.884 251.071L199.174 251.303L199.361 251.069L199.172 250.837L198.884 251.071ZM197.3 252.456L197.098 252.145L197.095 252.147L197.3 252.456ZM195.123 253.57L195.253 253.917L195.257 253.916L195.123 253.57ZM192.55 254.287L192.478 253.923L192.477 253.923L192.55 254.287ZM185.201 253.693L185.055 254.035L185.058 254.036L185.201 253.693ZM181.638 251.12L181.917 250.875L181.638 251.12ZM179.337 247.013L178.984 247.127L178.985 247.131L179.337 247.013ZM179.288 236.547L178.936 236.427L178.936 236.429L179.288 236.547ZM181.465 232.687L181.186 232.442L181.186 232.442L181.465 232.687ZM184.954 230.138L184.804 229.799L184.803 229.799L184.954 230.138ZM193.515 229.94L193.653 229.596L193.515 229.94ZM196.608 232.043L196.338 232.299L196.34 232.301L196.608 232.043ZM198.661 235.408L198.313 235.537L198.315 235.541L198.661 235.408ZM199.28 240.753L198.983 240.53V240.53L199.28 240.753ZM197.672 239.442C197.672 238.087 197.477 236.863 197.08 235.776L196.383 236.031C196.745 237.022 196.929 238.157 196.929 239.442H197.672ZM197.082 235.783C196.705 234.684 196.16 233.746 195.444 232.978L194.901 233.484C195.538 234.167 196.032 235.011 196.38 236.024L197.082 235.783ZM195.444 232.978C194.73 232.212 193.876 231.628 192.887 231.229L192.609 231.918C193.5 232.277 194.263 232.799 194.901 233.484L195.444 232.978ZM192.894 231.232C191.919 230.814 190.846 230.608 189.68 230.608V231.351C190.757 231.351 191.729 231.541 192.602 231.914L192.894 231.232ZM189.68 230.608C188.371 230.608 187.186 230.812 186.129 231.228L186.401 231.919C187.357 231.543 188.448 231.351 189.68 231.351V230.608ZM186.129 231.228C185.077 231.642 184.159 232.239 183.38 233.018L183.905 233.543C184.61 232.838 185.441 232.297 186.401 231.919L186.129 231.228ZM183.377 233.021C182.616 233.799 182.006 234.729 181.545 235.807L182.227 236.099C182.656 235.098 183.217 234.247 183.908 233.54L183.377 233.021ZM181.545 235.807C181.083 236.883 180.778 238.082 180.626 239.399L181.364 239.484C181.509 238.228 181.797 237.101 182.227 236.099L181.545 235.807ZM180.995 239.813H197.3V239.07H180.995V239.813ZM180.5 240.951V241.421H181.242V240.951H180.5ZM180.5 241.421C180.5 243.296 180.718 244.959 181.16 246.404L181.869 246.187C181.454 244.828 181.242 243.241 181.242 241.421H180.5ZM181.16 246.404C181.6 247.844 182.231 249.07 183.06 250.07L183.631 249.597C182.876 248.684 182.287 247.55 181.869 246.187L181.16 246.404ZM183.062 250.073C183.891 251.057 184.894 251.801 186.07 252.303L186.361 251.62C185.294 251.165 184.384 250.491 183.629 249.594L183.062 250.073ZM186.07 252.303C187.244 252.803 188.548 253.05 189.977 253.05V252.308C188.634 252.308 187.431 252.076 186.361 251.62L186.07 252.303ZM189.977 253.05C191.239 253.05 192.347 252.916 193.297 252.639L193.089 251.927C192.224 252.178 191.189 252.308 189.977 252.308V253.05ZM193.303 252.638C194.225 252.353 195.008 252.039 195.646 251.694L195.293 251.041C194.71 251.356 193.975 251.653 193.084 251.929L193.303 252.638ZM195.649 251.692C196.282 251.342 196.792 251.029 197.172 250.752L196.736 250.152C196.39 250.403 195.91 250.7 195.29 251.043L195.649 251.692ZM197.181 250.746C197.354 250.612 197.492 250.521 197.598 250.464C197.714 250.403 197.755 250.403 197.746 250.403V249.66C197.571 249.66 197.399 249.73 197.25 249.809C197.093 249.893 196.917 250.011 196.727 250.158L197.181 250.746ZM197.746 250.403C197.848 250.403 197.896 250.433 197.937 250.492L198.545 250.066C198.355 249.795 198.072 249.66 197.746 249.66V250.403ZM197.953 250.513L198.596 251.305L199.172 250.837L198.529 250.045L197.953 250.513ZM198.594 250.839C198.228 251.296 197.732 251.733 197.098 252.145L197.503 252.767C198.188 252.322 198.748 251.835 199.174 251.303L198.594 250.839ZM197.095 252.147C196.476 252.56 195.775 252.919 194.989 253.224L195.257 253.916C196.088 253.594 196.838 253.211 197.506 252.765L197.095 252.147ZM194.993 253.222C194.222 253.511 193.384 253.745 192.478 253.923L192.621 254.651C193.563 254.467 194.441 254.222 195.253 253.917L194.993 253.222ZM192.477 253.923C191.594 254.1 190.703 254.188 189.803 254.188V254.931C190.752 254.931 191.691 254.837 192.623 254.651L192.477 253.923ZM189.803 254.188C188.164 254.188 186.679 253.907 185.344 253.351L185.058 254.036C186.494 254.634 188.078 254.931 189.803 254.931V254.188ZM185.347 253.352C184.012 252.78 182.87 251.955 181.917 250.875L181.36 251.366C182.386 252.529 183.619 253.419 185.055 254.035L185.347 253.352ZM181.917 250.875C180.964 249.795 180.22 248.471 179.689 246.894L178.985 247.131C179.543 248.788 180.333 250.202 181.36 251.366L181.917 250.875ZM179.69 246.899C179.177 245.31 178.917 243.485 178.917 241.421H178.174C178.174 243.546 178.442 245.45 178.984 247.127L179.69 246.899ZM178.917 241.421C178.917 239.691 179.159 238.106 179.64 236.664L178.936 236.429C178.427 237.956 178.174 239.621 178.174 241.421H178.917ZM179.639 236.666C180.136 235.206 180.839 233.963 181.744 232.931L181.186 232.442C180.21 233.555 179.462 234.885 178.936 236.427L179.639 236.666ZM181.744 232.932C182.664 231.885 183.783 231.067 185.105 230.477L184.803 229.799C183.386 230.431 182.18 231.312 181.186 232.442L181.744 232.932ZM185.103 230.478C186.435 229.891 187.95 229.594 189.655 229.594V228.852C187.863 228.852 186.244 229.165 184.804 229.799L185.103 230.478ZM189.655 229.594C190.997 229.594 192.236 229.825 193.376 230.285L193.653 229.596C192.418 229.099 191.084 228.852 189.655 228.852V229.594ZM193.376 230.285C194.515 230.743 195.501 231.414 196.338 232.299L196.877 231.788C195.966 230.826 194.89 230.094 193.653 229.596L193.376 230.285ZM196.34 232.301C197.175 233.167 197.834 234.243 198.313 235.537L199.009 235.28C198.499 233.902 197.789 232.735 196.875 231.786L196.34 232.301ZM198.315 235.541C198.807 236.827 199.057 238.315 199.057 240.011H199.8C199.8 238.243 199.539 236.662 199.008 235.276L198.315 235.541ZM199.057 240.011C199.057 240.177 199.046 240.304 199.027 240.396C199.008 240.491 198.986 240.526 198.983 240.53L199.577 240.976C199.673 240.848 199.725 240.693 199.755 240.541C199.786 240.386 199.8 240.207 199.8 240.011H199.057ZM198.983 240.53C198.979 240.535 198.949 240.58 198.785 240.58V241.322C199.083 241.322 199.382 241.235 199.577 240.976L198.983 240.53ZM198.785 240.58H180.871V241.322H198.785V240.58ZM205.613 235.557L205.242 235.569L205.961 235.688L205.613 235.557ZM206.9 232.885L206.585 232.688L206.584 232.69L206.9 232.885ZM208.582 230.881L208.343 230.597L208.339 230.6L208.582 230.881ZM210.71 229.643L210.837 229.992L210.841 229.991L210.71 229.643ZM214.842 229.346L214.77 229.711L214.781 229.713L214.842 229.346ZM216.154 229.817L216.522 229.861L216.551 229.624L216.347 229.5L216.154 229.817ZM215.956 231.45L216.31 231.56L216.32 231.528L216.324 231.494L215.956 231.45ZM214.57 231.672L214.466 232.029L214.47 232.03L214.57 231.672ZM210.438 231.944L210.572 232.291L210.576 232.289L210.438 231.944ZM208.459 233.231L208.2 232.965L208.196 232.969L208.459 233.231ZM206.925 235.384L206.595 235.213L206.594 235.215L206.925 235.384ZM205.737 238.303L205.384 238.188L205.366 238.244V238.303H205.737ZM205.737 254.238V254.609H206.108V254.238H205.737ZM203.362 254.238H202.991V254.609H203.362V254.238ZM203.362 229.619V229.248H202.991V229.619H203.362ZM205.217 229.792L204.955 230.054L205.217 229.792ZM205.44 230.386L205.811 230.373L205.811 230.358L205.809 230.342L205.44 230.386ZM205.961 235.688C206.333 234.7 206.752 233.831 207.216 233.08L206.584 232.69C206.091 233.489 205.652 234.401 205.266 235.426L205.961 235.688ZM207.215 233.081C207.692 232.317 208.23 231.678 208.826 231.161L208.339 230.6C207.681 231.172 207.097 231.869 206.585 232.688L207.215 233.081ZM208.822 231.164C209.433 230.647 210.104 230.258 210.837 229.992L210.584 229.294C209.766 229.59 209.019 230.025 208.343 230.597L208.822 231.164ZM210.841 229.991C211.586 229.712 212.415 229.569 213.333 229.569V228.827C212.338 228.827 211.419 228.981 210.58 229.296L210.841 229.991ZM213.333 229.569C213.82 229.569 214.299 229.616 214.77 229.71L214.915 228.983C214.396 228.879 213.869 228.827 213.333 228.827V229.569ZM214.781 229.713C215.236 229.788 215.627 229.93 215.961 230.134L216.347 229.5C215.922 229.241 215.439 229.07 214.903 228.98L214.781 229.713ZM215.785 229.772L215.587 231.405L216.324 231.494L216.522 229.861L215.785 229.772ZM215.602 231.339C215.574 231.426 215.546 231.456 215.537 231.463C215.533 231.466 215.53 231.468 215.525 231.469C215.52 231.471 215.508 231.474 215.486 231.474V232.217C215.677 232.217 215.862 232.16 216.016 232.03C216.164 231.906 216.255 231.737 216.31 231.56L215.602 231.339ZM215.486 231.474C215.342 231.474 215.079 231.429 214.67 231.315L214.47 232.03C214.886 232.146 215.233 232.217 215.486 232.217V231.474ZM214.674 231.316C214.231 231.187 213.663 231.128 212.987 231.128V231.87C213.63 231.87 214.118 231.927 214.466 232.029L214.674 231.316ZM212.987 231.128C211.992 231.128 211.094 231.282 210.3 231.6L210.576 232.289C211.267 232.013 212.068 231.87 212.987 231.87V231.128ZM210.304 231.598C209.529 231.898 208.827 232.355 208.2 232.965L208.717 233.497C209.278 232.952 209.896 232.552 210.572 232.291L210.304 231.598ZM208.196 232.969C207.588 233.577 207.055 234.327 206.595 235.213L207.254 235.555C207.685 234.725 208.175 234.04 208.721 233.494L208.196 232.969ZM206.594 235.215C206.155 236.077 205.752 237.068 205.384 238.188L206.09 238.419C206.448 237.328 206.837 236.373 207.255 235.552L206.594 235.215ZM205.366 238.303V254.238H206.108V238.303H205.366ZM205.737 253.867H203.362V254.609H205.737V253.867ZM203.733 254.238V229.619H202.991V254.238H203.733ZM203.362 229.99H204.624V229.248H203.362V229.99ZM204.624 229.99C204.871 229.99 204.945 230.044 204.955 230.054L205.48 229.529C205.259 229.309 204.937 229.248 204.624 229.248V229.99ZM204.955 230.054C204.982 230.081 205.042 230.177 205.072 230.429L205.809 230.342C205.772 230.033 205.684 229.734 205.48 229.529L204.955 230.054ZM205.069 230.398L205.242 235.569L205.984 235.545L205.811 230.373L205.069 230.398ZM231.626 232.662L231.308 232.47L231.304 232.478L231.626 232.662ZM230.364 232.712L230.138 233.006L230.144 233.011L230.15 233.015L230.364 232.712ZM229.226 232.019L229.042 232.341L229.048 232.345L229.055 232.348L229.226 232.019ZM227.494 231.326L227.384 231.681L227.392 231.683L227.494 231.326ZM222.52 231.4L222.64 231.751L222.645 231.75L222.52 231.4ZM220.64 232.415L220.406 232.127L220.401 232.13L220.64 232.415ZM219.452 233.924L219.784 234.09L219.786 234.086L219.452 233.924ZM219.626 237.635L219.332 237.863L219.626 237.635ZM221.16 238.947L220.974 239.268L220.977 239.27L221.16 238.947ZM223.362 239.887L223.475 239.533L223.362 239.887ZM225.861 240.679L225.75 241.033L225.752 241.033L225.861 240.679ZM228.384 241.569L228.247 241.914L228.253 241.916L228.384 241.569ZM230.562 242.757L230.337 243.052L230.34 243.055L230.562 242.757ZM232.121 244.514L231.798 244.698V244.698L232.121 244.514ZM232.145 250.032L232.489 250.173L232.145 250.032ZM230.463 252.432L230.213 252.157L230.21 252.16L230.463 252.432ZM219.601 253.817L219.449 254.156L219.453 254.158L219.601 253.817ZM216.236 251.64L215.924 251.438L215.752 251.704L215.987 251.916L216.236 251.64ZM216.78 250.799L217.092 251L217.095 250.995L216.78 250.799ZM217.052 250.502L216.868 250.179L216.857 250.186L216.846 250.193L217.052 250.502ZM218.265 250.799L218.018 251.076L218.026 251.082L218.265 250.799ZM219.502 251.665L219.308 251.981L219.315 251.985L219.502 251.665ZM221.382 252.506L221.258 252.855L221.26 252.856L221.382 252.506ZM226.925 252.481L227.049 252.831L227.055 252.829L226.925 252.481ZM230.092 249.561L229.749 249.419L229.747 249.424L230.092 249.561ZM229.919 245.38L229.618 245.598L229.919 245.38ZM228.36 243.994L228.548 243.675L228.36 243.994ZM226.158 243.029L226.042 243.382L226.044 243.383L226.158 243.029ZM223.659 242.238L223.549 242.592L223.659 242.238ZM221.135 241.372L221.001 241.718L221.003 241.718L221.135 241.372ZM218.957 240.184L219.179 239.886L218.957 240.184ZM217.399 238.452L217.076 238.636L217.078 238.639L217.399 238.452ZM218.982 231.227L218.74 230.946L218.737 230.948L218.982 231.227ZM221.555 229.767L221.681 230.116L221.555 229.767ZM228.929 229.866L228.8 230.214L228.801 230.215L228.929 229.866ZM232.121 231.846L232.438 232.038L232.595 231.78L232.374 231.574L232.121 231.846ZM231.304 232.478C231.232 232.604 231.159 232.637 231.057 232.637V233.38C231.449 233.38 231.756 233.182 231.948 232.846L231.304 232.478ZM231.057 232.637C230.995 232.637 230.843 232.596 230.578 232.408L230.15 233.015C230.445 233.223 230.756 233.38 231.057 233.38V232.637ZM230.589 232.417C230.285 232.184 229.885 231.942 229.396 231.689L229.055 232.348C229.523 232.59 229.882 232.81 230.138 233.006L230.589 232.417ZM229.41 231.696C228.915 231.414 228.308 231.173 227.596 230.969L227.392 231.683C228.065 231.875 228.613 232.096 229.042 232.341L229.41 231.696ZM227.603 230.971C226.865 230.743 225.984 230.633 224.97 230.633V231.375C225.935 231.375 226.737 231.48 227.384 231.68L227.603 230.971ZM224.97 230.633C224.042 230.633 223.183 230.771 222.396 231.05L222.645 231.75C223.342 231.502 224.116 231.375 224.97 231.375V230.633ZM222.401 231.049C221.639 231.309 220.972 231.667 220.406 232.127L220.874 232.703C221.364 232.305 221.951 231.986 222.64 231.751L222.401 231.049ZM220.401 232.13C219.852 232.591 219.423 233.136 219.118 233.762L219.786 234.086C220.043 233.558 220.406 233.096 220.878 232.699L220.401 232.13ZM219.12 233.758C218.814 234.37 218.661 235.021 218.661 235.705H219.403C219.403 235.136 219.53 234.599 219.784 234.09L219.12 233.758ZM218.661 235.705C218.661 236.546 218.876 237.274 219.332 237.863L219.919 237.408C219.583 236.974 219.403 236.415 219.403 235.705H218.661ZM219.332 237.863C219.761 238.416 220.31 238.884 220.974 239.268L221.346 238.626C220.755 238.284 220.282 237.877 219.919 237.408L219.332 237.863ZM220.977 239.27C221.646 239.647 222.404 239.97 223.249 240.24L223.475 239.533C222.67 239.276 221.96 238.972 221.342 238.623L220.977 239.27ZM223.249 240.24C224.074 240.505 224.908 240.769 225.75 241.033L225.972 240.325C225.131 240.061 224.299 239.797 223.475 239.533L223.249 240.24ZM225.752 241.033C226.6 241.294 227.431 241.588 228.247 241.914L228.522 241.225C227.688 240.891 226.837 240.591 225.97 240.324L225.752 241.033ZM228.253 241.916C229.048 242.219 229.741 242.598 230.337 243.052L230.787 242.462C230.129 241.96 229.371 241.547 228.516 241.223L228.253 241.916ZM230.34 243.055C230.943 243.503 231.428 244.05 231.798 244.698L232.443 244.33C232.021 243.592 231.467 242.968 230.783 242.459L230.34 243.055ZM231.798 244.698C232.155 245.323 232.343 246.097 232.343 247.038H233.086C233.086 245.999 232.878 245.091 232.443 244.33L231.798 244.698ZM232.343 247.038C232.343 248.065 232.162 249.015 231.802 249.891L232.489 250.173C232.888 249.201 233.086 248.155 233.086 247.038H232.343ZM231.802 249.891C231.444 250.763 230.915 251.518 230.213 252.157L230.713 252.706C231.495 251.993 232.088 251.147 232.489 250.173L231.802 249.891ZM230.21 252.16C229.525 252.798 228.67 253.31 227.637 253.692L227.894 254.388C229.006 253.978 229.949 253.418 230.716 252.703L230.21 252.16ZM227.637 253.692C226.614 254.07 225.43 254.263 224.079 254.263V255.005C225.5 255.005 226.773 254.802 227.894 254.388L227.637 253.692ZM224.079 254.263C222.385 254.263 220.945 253.996 219.749 253.477L219.453 254.158C220.764 254.727 222.309 255.005 224.079 255.005V254.263ZM219.752 253.478C218.533 252.933 217.444 252.228 216.484 251.364L215.987 251.916C217.007 252.833 218.161 253.58 219.449 254.156L219.752 253.478ZM216.547 251.841L217.092 251L216.468 250.597L215.924 251.438L216.547 251.841ZM217.095 250.995C217.158 250.895 217.214 250.84 217.258 250.81L216.846 250.193C216.692 250.296 216.568 250.438 216.465 250.602L217.095 250.995ZM217.236 250.824C217.279 250.8 217.358 250.774 217.498 250.774V250.032C217.274 250.032 217.056 250.072 216.868 250.179L217.236 250.824ZM217.498 250.774C217.57 250.774 217.738 250.827 218.018 251.076L218.511 250.521C218.198 250.242 217.854 250.032 217.498 250.032V250.774ZM218.026 251.082C218.358 251.362 218.787 251.662 219.308 251.981L219.696 251.348C219.194 251.04 218.798 250.763 218.504 250.515L218.026 251.082ZM219.315 251.985C219.852 252.297 220.501 252.586 221.258 252.855L221.507 252.156C220.779 251.897 220.174 251.626 219.688 251.344L219.315 251.985ZM221.26 252.856C222.07 253.138 223.046 253.273 224.178 253.273V252.531C223.1 252.531 222.212 252.401 221.504 252.155L221.26 252.856ZM224.178 253.273C225.25 253.273 226.209 253.128 227.049 252.831L226.801 252.131C226.057 252.395 225.185 252.531 224.178 252.531V253.273ZM227.055 252.829C227.885 252.517 228.589 252.098 229.158 251.564L228.65 251.023C228.164 251.479 227.548 251.851 226.794 252.134L227.055 252.829ZM229.158 251.564C229.725 251.033 230.152 250.41 230.436 249.699L229.747 249.424C229.504 250.032 229.139 250.564 228.65 251.023L229.158 251.564ZM230.435 249.704C230.734 248.982 230.883 248.224 230.883 247.434H230.141C230.141 248.128 230.01 248.789 229.749 249.419L230.435 249.704ZM230.883 247.434C230.883 246.548 230.67 245.782 230.219 245.162L229.618 245.598C229.959 246.066 230.141 246.669 230.141 247.434H230.883ZM230.219 245.162C229.79 244.572 229.231 244.077 228.548 243.675L228.171 244.314C228.776 244.67 229.255 245.099 229.618 245.598L230.219 245.162ZM228.548 243.675C227.878 243.279 227.118 242.947 226.271 242.676L226.044 243.383C226.847 243.64 227.555 243.951 228.171 244.314L228.548 243.675ZM226.273 242.676C225.462 242.412 224.627 242.147 223.768 241.883L223.549 242.592C224.405 242.856 225.236 243.119 226.042 243.382L226.273 242.676ZM223.768 241.883C222.917 241.621 222.084 241.335 221.267 241.025L221.003 241.718C221.835 242.035 222.684 242.326 223.549 242.592L223.768 241.883ZM221.269 241.025C220.489 240.723 219.793 240.343 219.179 239.886L218.736 240.482C219.408 240.982 220.164 241.393 221.001 241.718L221.269 241.025ZM219.179 239.886C218.575 239.437 218.089 238.897 217.719 238.264L217.078 238.639C217.5 239.36 218.054 239.974 218.736 240.482L219.179 239.886ZM217.721 238.268C217.365 237.645 217.176 236.855 217.176 235.879H216.434C216.434 236.948 216.641 237.873 217.076 238.636L217.721 238.268ZM217.176 235.879C217.176 235.06 217.353 234.273 217.71 233.513L217.038 233.197C216.636 234.054 216.434 234.949 216.434 235.879H217.176ZM217.71 233.513C218.067 232.752 218.572 232.083 219.228 231.505L218.737 230.948C218.007 231.591 217.44 232.341 217.038 233.197L217.71 233.513ZM219.224 231.508C219.895 230.931 220.712 230.466 221.681 230.116L221.43 229.418C220.387 229.794 219.488 230.302 218.74 230.946L219.224 231.508ZM221.681 230.116C222.641 229.77 223.727 229.594 224.945 229.594V228.852C223.656 228.852 222.482 229.038 221.43 229.418L221.681 230.116ZM224.945 229.594C226.412 229.594 227.694 229.803 228.8 230.214L229.058 229.518C227.854 229.071 226.481 228.852 224.945 228.852V229.594ZM228.801 230.215C229.924 230.626 230.945 231.258 231.868 232.117L232.374 231.574C231.382 230.651 230.276 229.964 229.056 229.518L228.801 230.215ZM231.803 231.653L231.308 232.47L231.943 232.854L232.438 232.038L231.803 231.653Z" fill="white" fill-opacity="0.77"/>
<g filter="url(#filter3_d_331_4)">
<path d="M47.5942 114.741H267.806C271.905 114.741 275.229 118.064 275.229 122.164V203.815C275.229 207.915 271.905 211.238 267.806 211.238H47.5942V114.741Z" fill="#840C2C"/>
</g>
<path d="M69.4794 122.121H87.5169C93.6037 122.121 98.1687 123.754 101.212 127.02C104.255 130.286 105.777 135.073 105.777 141.383V149.066C105.777 155.375 104.255 160.163 101.212 163.429C98.1687 166.695 93.6037 168.328 87.5169 168.328H81.7271V200.061H69.4794V122.121ZM87.5169 157.194C89.5211 157.194 91.0057 156.637 91.9706 155.523C93.0098 154.41 93.5294 152.517 93.5294 149.845V140.603C93.5294 137.931 93.0098 136.038 91.9706 134.925C91.0057 133.812 89.5211 133.255 87.5169 133.255H81.7271V157.194H87.5169ZM117.996 122.121H136.702C142.788 122.121 147.354 123.754 150.397 127.02C153.44 130.286 154.962 135.073 154.962 141.383V180.798C154.962 187.108 153.44 191.895 150.397 195.161C147.354 198.428 142.788 200.061 136.702 200.061H117.996V122.121ZM136.479 188.926C138.483 188.926 140.005 188.332 141.044 187.145C142.158 185.957 142.714 184.027 142.714 181.355V140.826C142.714 138.154 142.158 136.224 141.044 135.036C140.005 133.849 138.483 133.255 136.479 133.255H130.244V188.926H136.479ZM168.796 122.121H201.197V133.255H181.044V154.967H196.855V166.101H181.044V200.061H168.796V122.121Z" fill="white"/>
<g filter="url(#filter4_i_331_4)">
<path d="M255.916 189.236C255.916 189.236 254.072 189.236 250.383 189.236L245.403 208.948C244.85 211.023 243.443 212.061 241.184 212.061H237.103C235.951 212.061 235.121 211.646 234.614 210.816C234.106 209.94 233.991 208.902 234.268 207.703L238.902 189.236H209.3C206.349 189.236 204.573 188.061 203.974 185.709C203.328 183.357 203.882 180.96 205.634 178.516L246.717 117.583C247.732 116.338 249.138 115.715 250.936 115.715H256.193C257.76 115.715 258.683 116.268 258.959 117.375C259.236 118.436 258.89 119.634 257.922 120.972L217.668 179.623L241.322 179.553L246.302 159.773C246.856 157.698 248.262 156.66 250.521 156.66H254.671C255.824 156.66 256.654 157.098 257.161 157.974C257.668 158.85 257.783 159.888 257.507 161.087L252.873 179.484H258.06C259.536 179.484 260.55 179.715 261.103 180.176C261.657 180.637 261.726 181.444 261.311 182.597L259.858 187.023C259.582 187.899 259.19 188.499 258.683 188.821C258.175 189.098 257.253 189.236 255.916 189.236Z" fill="url(#paint1_linear_331_4)"/>
</g>
</g>
<defs>
<filter id="filter0_dddd_331_4" x="-19.2113" y="0.923489" width="385.988" height="385.988" filterUnits="userSpaceOnUse" color-interpolation-filters="sRGB">
<feFlood flood-opacity="0" result="BackgroundImageFix"/>
<feColorMatrix in="SourceAlpha" type="matrix" values="0 0 0 0 0 0 0 0 0 0 0 0 0 0 0 0 0 0 127 0" result="hardAlpha"/>
<feOffset dx="-9.89714"/>
<feGaussianBlur stdDeviation="4.94857"/>
<feColorMatrix type="matrix" values="0 0 0 0 0 0 0 0 0 0 0 0 0 0 0 0 0 0 0.25 0"/>
<feBlend mode="normal" in2="BackgroundImageFix" result="effect1_dropShadow_331_4"/>
<feColorMatrix in="SourceAlpha" type="matrix" values="0 0 0 0 0 0 0 0 0 0 0 0 0 0 0 0 0 0 127 0" result="hardAlpha"/>
<feOffset dy="-9.89714"/>
<feGaussianBlur stdDeviation="4.94857"/>
<feColorMatrix type="matrix" values="0 0 0 0 0 0 0 0 0 0 0 0 0 0 0 0 0 0 0.25 0"/>
<feBlend mode="normal" in2="effect1_dropShadow_331_4" result="effect2_dropShadow_331_4"/>
<feColorMatrix in="SourceAlpha" type="matrix" values="0 0 0 0 0 0 0 0 0 0 0 0 0 0 0 0 0 0 127 0" result="hardAlpha"/>
<feOffset dx="9.89714"/>
<feGaussianBlur stdDeviation="4.94857"/>
<feColorMatrix type="matrix" values="0 0 0 0 0 0 0 0 0 0 0 0 0 0 0 0 0 0 0.25 0"/>
<feBlend mode="normal" in2="effect2_dropShadow_331_4" result="effect3_dropShadow_331_4"/>
<feColorMatrix in="SourceAlpha" type="matrix" values="0 0 0 0 0 0 0 0 0 0 0 0 0 0 0 0 0 0 127 0" result="hardAlpha"/>
<feOffset dy="9.89714"/>
<feGaussianBlur stdDeviation="4.94857"/>
<feColorMatrix type="matrix" values="0 0 0 0 0 0 0 0 0 0 0 0 0 0 0 0 0 0 0.25 0"/>
<feBlend mode="normal" in2="effect3_dropShadow_331_4" result="effect4_dropShadow_331_4"/>
<feBlend mode="normal" in="SourceGraphic" in2="effect4_dropShadow_331_4" result="shape"/>
</filter>
<filter id="filter1_i_331_4" x="213.371" y="20.7178" width="89.0743" height="86.5999" filterUnits="userSpaceOnUse" color-interpolation-filters="sRGB">
<feFlood flood-opacity="0" result="BackgroundImageFix"/>
<feBlend mode="normal" in="SourceGraphic" in2="BackgroundImageFix" result="shape"/>
<feColorMatrix in="SourceAlpha" type="matrix" values="0 0 0 0 0 0 0 0 0 0 0 0 0 0 0 0 0 0 127 0" result="hardAlpha"/>
<feOffset dx="-4.94857" dy="4.94857"/>
<feGaussianBlur stdDeviation="4.94857"/>
<feComposite in2="hardAlpha" operator="arithmetic" k2="-1" k3="1"/>
<feColorMatrix type="matrix" values="0 0 0 0 0.00392157 0 0 0 0 0.0980392 0 0 0 0 0.211765 0 0 0 0.56 0"/>
<feBlend mode="normal" in2="shape" result="effect1_innerShadow_331_4"/>
</filter>
<filter id="filter2_d_331_4" x="217.413" y="286.771" width="80.3758" height="82.1173" filterUnits="userSpaceOnUse" color-interpolation-filters="sRGB">
<feFlood flood-opacity="0" result="BackgroundImageFix"/>
<feColorMatrix in="SourceAlpha" type="matrix" values="0 0 0 0 0 0 0 0 0 0 0 0 0 0 0 0 0 0 127 0" result="hardAlpha"/>
<feOffset dy="9.89714"/>
<feGaussianBlur stdDeviation="4.94857"/>
<feColorMatrix type="matrix" values="0 0 0 0 0 0 0 0 0 0 0 0 0 0 0 0 0 0 0.25 0"/>
<feBlend mode="normal" in2="BackgroundImageFix" result="effect1_dropShadow_331_4"/>
<feBlend mode="normal" in="SourceGraphic" in2="effect1_dropShadow_331_4" result="shape"/>
</filter>
<filter id="filter3_d_331_4" x="37.6971" y="114.741" width="247.429" height="116.291" filterUnits="userSpaceOnUse" color-interpolation-filters="sRGB">
<feFlood flood-opacity="0" result="BackgroundImageFix"/>
<feColorMatrix in="SourceAlpha" type="matrix" values="0 0 0 0 0 0 0 0 0 0 0 0 0 0 0 0 0 0 127 0" result="hardAlpha"/>
<feOffset dy="9.89714"/>
<feGaussianBlur stdDeviation="4.94857"/>
<feColorMatrix type="matrix" values="0 0 0 0 0 0 0 0 0 0 0 0 0 0 0 0 0 0 0.25 0"/>
<feBlend mode="normal" in2="BackgroundImageFix" result="effect1_dropShadow_331_4"/>
<feBlend mode="normal" in="SourceGraphic" in2="effect1_dropShadow_331_4" result="shape"/>
</filter>
<filter id="filter4_i_331_4" x="203.006" y="115.715" width="58.9277" height="106.243" filterUnits="userSpaceOnUse" color-interpolation-filters="sRGB">
<feFlood flood-opacity="0" result="BackgroundImageFix"/>
<feBlend mode="normal" in="SourceGraphic" in2="BackgroundImageFix" result="shape"/>
<feColorMatrix in="SourceAlpha" type="matrix" values="0 0 0 0 0 0 0 0 0 0 0 0 0 0 0 0 0 0 127 0" result="hardAlpha"/>
<feOffset dy="9.89714"/>
<feGaussianBlur stdDeviation="4.94857"/>
<feComposite in2="hardAlpha" operator="arithmetic" k2="-1" k3="1"/>
<feColorMatrix type="matrix" values="0 0 0 0 0 0 0 0 0 0 0 0 0 0 0 0 0 0 0.25 0"/>
<feBlend mode="normal" in2="shape" result="effect1_innerShadow_331_4"/>
</filter>
<linearGradient id="paint0_linear_331_4" x1="175.02" y1="18.2435" x2="175.02" y2="364.644" gradientUnits="userSpaceOnUse">
<stop stop-color="#E8016A"/>
<stop offset="1" stop-color="#EE3224"/>
</linearGradient>
<linearGradient id="paint1_linear_331_4" x1="235.64" y1="18.2434" x2="235.64" y2="364.643" gradientUnits="userSpaceOnUse">
<stop stop-color="#EC247F"/>
<stop offset="0.0001" stop-color="#E8016A"/>
<stop offset="1" stop-color="#EE2424"/>
</linearGradient>
<clipPath id="clip0_331_4">
<rect width="346.4" height="346.4" fill="white" transform="translate(0.583008 20.7178)"/>
</clipPath>
</defs>
</svg>
